<svg aria-hidden="true" style="width:0;height:0;position:absolute;overflow:hidden" xmlns="http://www.w3.org/2000/svg"><defs><symbol id="icon-logo" viewBox="0 0 32 32"><path fill="#1064e5" style="fill:var(--color1,#1064e5)" d="M0 7.938A7.938 7.938 0 0 1 7.938 0h16.124A7.938 7.938 0 0 1 32 7.938v16.124A7.938 7.938 0 0 1 24.062 32H7.938A7.938 7.938 0 0 1 0 24.062V7.938z"/><path fill="#fff" style="fill:var(--color2,#fff)" d="M24.853 25.183c-2.259 2.071-5.123 3.107-8.59 3.107-3.671 0-6.684-1.145-9.037-3.436-2.338-2.275-3.507-5.241-3.507-8.896 0-3.64 1.138-6.59 3.413-8.849C9.423 4.85 12.373 3.72 15.981 3.72c1.851 0 3.522.314 5.013.941l-.588 2.754c-1.255-.581-2.699-.871-4.33-.871-2.777 0-5.029.839-6.755 2.518-1.71 1.679-2.565 3.985-2.565 6.919 0 2.918.879 5.225 2.636 6.919 1.773 1.71 4.087 2.565 6.943 2.565 1.255 0 2.401-.18 3.436-.541a7.912 7.912 0 0 0 2.801-1.6c.832-.706 1.475-1.655 1.93-2.848a9.667 9.667 0 0 0 .535-1.964c.143-1.351.232-2.717-.003-3.776-.126-.569-.317-.906-.517-1.098-.17-.164-.469-.344-1.104-.356-1.126-.022-2.382.692-3.662 2.032-1.241 1.298-2.285 2.949-2.926 4.192-.25.484-.422.882-.422.882l-.066-.067v.001l-5.103-5.135 2.16-2.16 2.389 2.337a18.911 18.911 0 0 1 1.76-2.161c1.469-1.537 3.503-3.023 5.93-2.976 1.272.025 2.35.428 3.162 1.209.782.753 1.179 1.723 1.381 2.639.16.722.216 1.497.216 2.258h.011v.4c0 .915-.075 1.78-.224 2.596l-.004.035h-.002c-.435 2.347-1.488 4.287-3.159 5.818z"/></symbol><symbol id="icon-piggy-bank" viewBox="0 0 32 32"><path fill="#1064e5" style="fill:var(--color1,#1064e5);stroke:var(--color1,#1064e5)" stroke="#1064e5" stroke-width=".762" d="M26.406 16.913a.466.466 0 0 0-.466.466.592.592 0 0 1-1.182 0 .466.466 0 0 0-.932 0c0 .84.683 1.523 1.523 1.523s1.523-.683 1.523-1.523a.466.466 0 0 0-.466-.466z"/><path fill="#1064e5" style="fill:var(--color1,#1064e5);stroke:var(--color1,#1064e5)" stroke="#1064e5" stroke-width=".762" d="m30.778 16.989-1.311-.42a.55.55 0 0 1-.354-.358 8.448 8.448 0 0 0-1.239-2.451 9.041 9.041 0 0 0-.828-.976c.193-.848.299-1.808.285-2.638-.02-1.187-.257-1.883-.725-2.128-.252-.132-1.02-.534-5.174 1.368a1.55 1.55 0 0 0-.275.164 17.73 17.73 0 0 0-.854-.207l-.105-.022a6.336 6.336 0 0 0 .57-2.359.465.465 0 1 0-.93-.042 5.415 5.415 0 0 1-3.545 4.845 13.52 13.52 0 0 0-3.748 0 5.385 5.385 0 0 1-1.962-1.253C9.558 9.487 8.994 8.125 8.994 6.676s.564-2.811 1.589-3.836 2.387-1.589 3.836-1.589 2.811.564 3.836 1.589c.412.412.752.882 1.011 1.396a.466.466 0 0 0 .831-.418 6.322 6.322 0 0 0-1.185-1.636C17.711.981 16.115.32 14.417.32s-3.294.661-4.495 1.862S8.06 4.979 8.06 6.677s.661 3.294 1.862 4.495c.346.346.723.644 1.122.894-.29.075-.577.16-.861.255a.465.465 0 1 0 .295.883 12.499 12.499 0 0 1 7.877 0 .467.467 0 0 0 .296-.883c-.284-.095-.572-.18-.861-.255a6.356 6.356 0 0 0 1.934-1.89 19.685 19.685 0 0 1 .88.194l-.015.061c-.227 1.078-.212 2.031.044 2.833A3.37 3.37 0 0 0 21.868 15c.694.508 1.533.727 2.292.727.572 0 1.099-.124 1.485-.344.438-.248.805-.77 1.095-1.555a7.533 7.533 0 0 1 1.484 2.662c.144.459.503.82.958.966l1.311.42c.344.11.575.427.575.788v2.174a.825.825 0 0 1-.575.788l-2.112.676c-.338.108-.624.34-.805.654-.83 1.434-2.134 2.62-3.877 3.527a.73.73 0 0 0-.383.514l-.676 3.581a.21.21 0 0 1-.206.17h-2.199a.21.21 0 0 1-.206-.17l-.375-1.979a.732.732 0 0 0-.832-.589c-.947.143-1.923.216-2.901.216a18.58 18.58 0 0 1-2.134-.121.738.738 0 0 0-.807.592l-.356 1.881a.21.21 0 0 1-.206.17h-2.199a.21.21 0 0 1-.206-.172l-.651-3.383a.73.73 0 0 0-.376-.508c-2.971-1.586-4.542-4.237-4.542-7.664 0-1.732.379-3.263 1.126-4.552.697-1.202 1.716-2.197 3.027-2.955a.465.465 0 1 0-.466-.806c-2.542 1.471-4.076 3.74-4.498 6.622l-.134-.013a2.31 2.31 0 0 0-.171-.929c-.27-.672-.825-1.156-1.414-1.235-.464-.062-.906.135-1.212.54-.444.587-.372 1.052-.233 1.338.235.483.838.825 1.838 1.04a1.857 1.857 0 0 1-.091.124c-.591.741-1.288.905-1.74.921a.489.489 0 0 0-.477.486v.002c0 .261.206.474.467.486.033.002.068.002.105.002.572 0 1.491-.211 2.373-1.317.139-.175.253-.359.34-.549l.253.026v-.001c-.016.252-.025.509-.025.769 0 1.939.462 3.668 1.374 5.139.841 1.356 2.044 2.467 3.578 3.302l.633 3.288c.102.538.573.929 1.121.929h2.199c.548 0 1.019-.39 1.121-.929l.322-1.7a20.449 20.449 0 0 0 4.913-.092l.339 1.793c.102.538.573.928 1.121.928h2.199c.547 0 1.019-.391 1.121-.929l.659-3.487c1.861-.984 3.263-2.276 4.169-3.842a.505.505 0 0 1 .283-.233l2.112-.677a1.753 1.753 0 0 0 1.222-1.675v-2.173c0-.768-.491-1.441-1.222-1.675zm-4.448-5.535c-.179 1.533-.66 2.844-1.143 3.118-.549.311-1.817.371-2.769-.325-.953-.697-1.27-1.951-.917-3.625a.56.56 0 0 1 .32-.389c2.331-1.067 3.676-1.416 4.175-1.416.075 0 .131.008.169.023.15.16.347 1.069.166 2.616zM1.308 16.625c-.048-.099.066-.274.138-.369.114-.151.22-.182.299-.182.017 0 .032.001.047.003.214.029.514.264.673.659.037.093.086.247.097.439-.645-.134-1.146-.326-1.254-.55z"/><path fill="#1064e5" style="fill:var(--color1,#1064e5);stroke:var(--color1,#1064e5)" stroke="#1064e5" stroke-width=".762" d="M14.87 6.142V4.475c.575.041.788.304.985.304.246 0 .361-.312.361-.468 0-.402-.788-.575-1.346-.591v-.222c0-.099-.123-.189-.246-.189-.14 0-.238.09-.238.189v.238c-.78.082-1.56.493-1.56 1.527 0 1.051.821 1.346 1.56 1.609v1.929c-.837-.066-1.059-.64-1.33-.64-.205 0-.378.271-.378.468 0 .402.69.952 1.708.969v.255c0 .098.099.189.238.189.123 0 .246-.09.246-.189v-.279c.887-.123 1.494-.681 1.494-1.691 0-1.116-.78-1.478-1.494-1.74zm-.435-.156c-.435-.164-.788-.337-.788-.804 0-.427.328-.632.788-.69v1.494zm.386 2.8V7.054c.402.172.722.402.722.919 0 .468-.279.731-.722.813z"/></symbol><symbol id="icon-positive-vote" viewBox="0 0 32 32"><path fill="#1064e5" style="fill:var(--color1,#1064e5);stroke:var(--color1,#1064e5)" stroke="#1064e5" stroke-width=".762" d="M31.433 13.709a2.294 2.294 0 0 0-1.419-.977 2.309 2.309 0 0 0-.119-2.347 2.3 2.3 0 0 0-1.419-.976 2.313 2.313 0 0 0-.12-2.348 2.294 2.294 0 0 0-1.419-.977 2.309 2.309 0 0 0-3.318-2.997l-2.297 1.522a14.364 14.364 0 0 0-3.879-1.313 10.647 10.647 0 0 0-1.48-1.791l-.95-.921a2.092 2.092 0 0 0-2.596-.241 2.082 2.082 0 0 0-.586 2.882l.073.114A14.48 14.48 0 0 0 .447 19.515c.696 5.064 4.069 9.428 8.803 11.389a14.374 14.374 0 0 0 5.535 1.097c3.036 0 5.943-.93 8.406-2.689a14.432 14.432 0 0 0 5.213-6.869.498.498 0 0 0-.936-.338 13.435 13.435 0 0 1-4.856 6.397 13.387 13.387 0 0 1-7.827 2.504c-1.462 0-2.889-.231-4.256-.686l4.048-2.681h.001l.001-.001 3.365-2.228c.302-.2.508-.506.581-.861s.002-.718-.198-1.02l-.044-.067.654-.433a2.213 2.213 0 0 1 1.579-.341c.8.128 1.612-.047 2.286-.494l5.421-3.59c-.037.47-.098.938-.183 1.398a.498.498 0 0 0 .978.182c.138-.742.217-1.502.238-2.263l1.528-1.012c.514-.34.865-.861.987-1.465s.003-1.22-.337-1.734zM20.357 5.248l-1.52 1.007-.299-.806a10.643 10.643 0 0 0-.427-.989 13.37 13.37 0 0 1 2.247.789zM4.601 8.697a13.479 13.479 0 0 1 7.781-4.436 6.143 6.143 0 0 1 .31 3.723l-1.213 5.241a1.351 1.351 0 0 0-1.737-.203l-3.436 2.275-4.956 3.282a13.478 13.478 0 0 1 3.252-9.883zM17.55 24.35a.363.363 0 0 1-.155.23l-2.955 1.957-5.485-8.179a.497.497 0 0 0-.826.554l5.481 8.175-4.219 2.794A13.52 13.52 0 0 1 1.478 19.67l4.962-3.275.571.852a.498.498 0 0 0 .827-.553l-.567-.846 3.02-1.993a.36.36 0 0 1 .501.102l6.705 10.124c.053.08.072.177.053.272zm13.245-9.106a1.3 1.3 0 0 1-.562.833l-1.746 1.157-.002.001-6.233 4.128a2.213 2.213 0 0 1-1.579.341 3.21 3.21 0 0 0-2.286.494l-.654.433-5.491-8.292 1.419-6.132a7.148 7.148 0 0 0-.999-5.533 1.086 1.086 0 0 1 1.66-1.378l.95.921a9.724 9.724 0 0 1 2.333 3.575l.518 1.394.003.007a.104.104 0 0 1 .004.01l.011.023a.498.498 0 0 0 .724.202l5.307-3.514a1.313 1.313 0 0 1 1.449 2.189l-.461.305-1.028.681-.004.003-.016.012a.498.498 0 0 0 .57.815l1.028-.681c.292-.193.642-.261.986-.191s.64.269.833.562c.194.292.262.643.192.986s-.269.64-.562.833l-1.489.986a.497.497 0 1 0 .549.829l1.028-.681a1.313 1.313 0 0 1 1.449 2.19l-.744.492-.012.008-.733.486a.498.498 0 0 0 .549.83l.23-.153.797-.528c.292-.194.642-.262.986-.192s.64.269.833.562c.193.292.262.643.192.986z"/></symbol><symbol id="icon-speedometer" viewBox="0 0 32 32"><path fill="#1064e5" style="fill:var(--color1,#1064e5);stroke:var(--color1,#1064e5)" stroke="#1064e5" stroke-width=".381" d="M14 18.757c0 1.103.897 2 2 2s2-.897 2-2a.5.5 0 0 0-1 0 1.001 1.001 0 1 1-1.955-.296.482.482 0 0 0 .072-.173 1 1 0 0 1 .883-.532.5.5 0 0 0 0-1c-.651 0-1.231.313-1.596.796l-7.616-3.14a.499.499 0 1 0-.38.924l7.613 3.139c-.013.092-.02.185-.02.28z"/><path fill="#1064e5" style="fill:var(--color1,#1064e5);stroke:var(--color1,#1064e5)" stroke="#1064e5" stroke-width=".381" d="M27.314 7.443C24.292 4.421 20.274 2.757 16 2.757S7.708 4.421 4.686 7.443A15.895 15.895 0 0 0 0 18.757c0 3.13.907 6.164 2.623 8.775a.499.499 0 1 0 .835-.549c-.427-.649-.8-1.327-1.118-2.027l1.379-.571a.5.5 0 1 0-.383-.923l-1.38.571a14.96 14.96 0 0 1-.949-4.776h1.492a.5.5 0 0 0 0-1H1.008c.054-1.656.375-3.265.943-4.778l1.385.574a.497.497 0 0 0 .653-.271.5.5 0 0 0-.27-.653l-1.385-.574a14.968 14.968 0 0 1 2.712-4.046L6.1 9.563a.496.496 0 0 0 .706 0 .5.5 0 0 0 0-.707L5.752 7.802A14.945 14.945 0 0 1 9.798 5.09l.574 1.385a.501.501 0 0 0 .653.271.5.5 0 0 0 .27-.653l-.574-1.385a14.967 14.967 0 0 1 4.778-.943v1.491a.5.5 0 0 0 1 0V3.765c1.656.054 3.265.375 4.779.943l-.574 1.385a.5.5 0 1 0 .923.382l.574-1.385a14.968 14.968 0 0 1 4.046 2.712l-1.054 1.054a.5.5 0 0 0 .706.707l1.054-1.054a14.945 14.945 0 0 1 2.712 4.046l-1.385.574a.5.5 0 1 0 .383.924l1.385-.574c.568 1.513.889 3.123.943 4.779H29.5a.5.5 0 0 0 0 1h1.492a14.928 14.928 0 0 1-.949 4.776l-1.38-.571a.5.5 0 0 0-.383.923l1.379.571c-.318.7-.691 1.377-1.118 2.027a.5.5 0 0 0 .835.549 15.932 15.932 0 0 0 2.623-8.775c0-4.274-1.664-8.292-4.686-11.314z"/><path fill="#1064e5" style="fill:var(--color1,#1064e5);stroke:var(--color1,#1064e5)" stroke="#1064e5" stroke-width=".381" d="M20.489 24.246h-8.995a1.5 1.5 0 0 0-1.499 1.499v1.999a1.5 1.5 0 0 0 1.499 1.499h8.995a1.5 1.5 0 0 0 1.499-1.499v-1.999a1.5 1.5 0 0 0-1.499-1.499zm.5 3.498a.5.5 0 0 1-.5.5h-8.995a.5.5 0 0 1-.5-.5v-1.999a.5.5 0 0 1 .5-.5h8.995a.5.5 0 0 1 .5.5v1.999z"/><path fill="#1064e5" style="fill:var(--color1,#1064e5);stroke:var(--color1,#1064e5)" stroke="#1064e5" stroke-width=".381" d="M16.491 26.245h-.999a.5.5 0 0 0 0 1h.999a.5.5 0 0 0 0-1zM13.993 26.245h-.999a.5.5 0 0 0 0 1h.999a.5.5 0 0 0 0-1zM18.99 26.245h-.999a.5.5 0 0 0 0 1h.999a.5.5 0 0 0 0-1z"/></symbol><symbol id="icon-arrow-up" viewBox="0 0 32 32"><path d="m27.414 12.586-10-10a2 2 0 0 0-2.828 0l-10 10a2 2 0 1 0 2.828 2.828L14 8.828V28a2 2 0 1 0 4 0V8.828l6.586 6.586c.39.39.902.586 1.414.586s1.024-.195 1.414-.586a2 2 0 0 0 0-2.828z"/></symbol><symbol id="icon-logo-new" viewBox="0 0 105 32"><path fill="#061224" style="fill:var(--color1,#061224)" d="M57.614 5.251c.612 0 1.114.188 1.506.565.392.361.588.832.588 1.412s-.196 1.059-.588 1.436c-.392.377-.894.565-1.506.565-.596 0-1.098-.188-1.506-.565-.392-.377-.588-.855-.588-1.436 0-.565.196-1.036.588-1.412.408-.377.91-.565 1.506-.565zm-1.695 18.922V11.229h3.365v12.944h-3.365zM70.784 11.23h3.365v12.78c0 1.914-.581 3.444-1.742 4.589-1.161 1.161-2.714 1.742-4.66 1.742-1.679 0-3.138-.424-4.377-1.271-1.224-.847-1.953-2.079-2.189-3.695h3.483c.345 1.318 1.341 1.977 2.989 1.977 2.087 0 3.13-1.083 3.13-3.248v-1.859c-1.004 1.349-2.361 2.024-4.072 2.024-1.695 0-3.107-.628-4.236-1.883-1.114-1.255-1.671-2.848-1.671-4.778s.565-3.522 1.694-4.778 2.534-1.883 4.213-1.883c1.726 0 3.083.69 4.072 2.071v-1.789zm-3.319 9.838c.957 0 1.749-.322 2.377-.965s.942-1.475.942-2.495c0-1.004-.322-1.828-.965-2.471-.628-.659-1.412-.988-2.353-.988s-1.726.329-2.353.988c-.612.643-.918 1.467-.918 2.471s.306 1.836.918 2.495c.628.643 1.412.965 2.353.965zM47.424 17.621c-1.208-.251-2.181-.502-2.918-.753s-1.412-.573-2.024-.965c-.612-.377-1.043-.847-1.294-1.412-.267-.565-.4-1.247-.4-2.048 0-.91.196-1.718.588-2.424a4.06 4.06 0 0 1 1.53-1.6 7.73 7.73 0 0 1 2-.847 8.112 8.112 0 0 1 2.142-.282c2.244 0 3.954.526 5.131 1.577 1.161 1.067 1.844 2.401 2.048 4.001h-3.389c-.235-.847-.635-1.467-1.2-1.859-.581-.392-1.436-.588-2.565-.588-.941 0-1.655.165-2.142.494-.502.329-.753.792-.753 1.389 0 .377.141.675.424.894.267.235.596.408.988.518s1.09.275 2.095.494a.988.988 0 0 0 .188.024.718.718 0 0 0 .165.047l.188.047c.847.173 1.561.361 2.142.565s1.153.486 1.718.847.996.824 1.294 1.389c.282.565.424 1.239.424 2.024 0 1.632-.612 2.903-1.836 3.813s-2.683 1.365-4.378 1.365c-2.071 0-3.64-.479-4.707-1.436-1.083-.941-1.726-2.165-1.93-3.671h3.413c.408 1.318 1.475 1.977 3.201 1.977.957 0 1.671-.18 2.142-.541.471-.345.706-.8.706-1.365 0-.455-.196-.784-.588-.988-.408-.204-1.208-.431-2.401-.683zM89.058 12.265c-.832-.91-1.977-1.365-3.436-1.365-1.66 0-2.973.643-3.938 1.93v-1.606h-.086v-.041h-3.365v.041h-2.525v2.988h2.525v9.915h3.365v-6.802c0-2.15.973-3.224 2.918-3.224.863 0 1.483.22 1.859.659s.565 1.098.565 1.977v7.39h3.365v-8.12c0-1.585-.416-2.832-1.247-3.742zM104.174 11.229h-3.365v6.802c0 1.051-.251 1.851-.753 2.401-.486.549-1.192.824-2.118.824-.847 0-1.459-.22-1.836-.659-.361-.439-.541-1.098-.541-1.977v-7.39h-3.365v8.12c0 1.569.408 2.816 1.224 3.742.832.91 1.961 1.365 3.389 1.365 1.679 0 3.012-.69 4.001-2.071V24.501c0 .975-.226 1.681-.672 2.144-.445.462-1.123.705-2.059.705-.74 0-1.318-.148-1.747-.432-.426-.282-.717-.706-.868-1.284l-.026-.099h-3.454l.022.152c.221 1.516.908 2.682 2.065 3.483h.001c1.163.795 2.529 1.19 4.094 1.19 1.814 0 3.277-.542 4.372-1.638 1.095-1.081 1.638-2.522 1.638-4.308V11.23z"/><path fill="#1064e5" style="fill:var(--color2,#1064e5)" d="M0 7.938A7.938 7.938 0 0 1 7.938 0h16.124A7.938 7.938 0 0 1 32 7.938v16.124A7.938 7.938 0 0 1 24.062 32H7.938A7.938 7.938 0 0 1 0 24.062V7.938z"/><path fill="#fff" style="fill:var(--color3,#fff)" d="M24.853 25.183c-2.259 2.071-5.123 3.107-8.59 3.107-3.671 0-6.684-1.145-9.037-3.436-2.338-2.275-3.507-5.241-3.507-8.896 0-3.64 1.138-6.59 3.413-8.849C9.423 4.85 12.373 3.72 15.981 3.72c1.851 0 3.522.314 5.013.941l-.588 2.754c-1.255-.581-2.699-.871-4.33-.871-2.777 0-5.029.839-6.755 2.518-1.71 1.679-2.565 3.985-2.565 6.919 0 2.918.879 5.225 2.636 6.919 1.773 1.71 4.087 2.565 6.943 2.565 1.255 0 2.401-.18 3.436-.541a7.912 7.912 0 0 0 2.801-1.6c.832-.706 1.475-1.655 1.93-2.848a9.667 9.667 0 0 0 .535-1.964c.143-1.351.232-2.717-.003-3.776-.126-.569-.317-.906-.517-1.098-.17-.164-.469-.344-1.104-.356-1.126-.022-2.382.692-3.662 2.032-1.241 1.298-2.285 2.949-2.926 4.192-.25.484-.422.882-.422.882l-.066-.067v.001l-5.103-5.135 2.16-2.16 2.389 2.337a18.911 18.911 0 0 1 1.76-2.161c1.469-1.537 3.503-3.023 5.93-2.976 1.272.025 2.35.428 3.162 1.209.782.753 1.179 1.723 1.381 2.639.16.722.216 1.497.216 2.258h.011v.4c0 .915-.075 1.78-.224 2.596l-.004.035h-.002c-.435 2.347-1.488 4.287-3.159 5.818z"/></symbol><symbol id="icon-burger" viewBox="0 0 41 32"><path fill="#1064e5" style="fill:var(--color1,#1064e5)" d="M0 2.286A2.286 2.286 0 0 1 2.286 0h36.571a2.286 2.286 0 0 1 0 4.572H2.286A2.286 2.286 0 0 1 0 2.286zM0 16a2.286 2.286 0 0 1 2.286-2.286h36.571a2.286 2.286 0 0 1 0 4.572H2.286A2.286 2.286 0 0 1 0 16zM0 29.714a2.286 2.286 0 0 1 2.286-2.286h36.571a2.286 2.286 0 0 1 0 4.572H2.286A2.286 2.286 0 0 1 0 29.714z"/></symbol></defs></svg>