<svg aria-hidden="true" style="position: absolute; width: 0; height: 0; overflow: hidden;" version="1.1" xmlns="http://www.w3.org/2000/svg" xmlns:xlink="http://www.w3.org/1999/xlink">
<defs>
<symbol id="icon-logo" viewBox="0 0 32 32">
<path fill="#1064e5" style="fill: var(--color1, #1064e5)" d="M0 7.938c0-4.384 3.554-7.938 7.938-7.938h16.124c4.384 0 7.938 3.554 7.938 7.938v16.124c0 4.384-3.554 7.938-7.938 7.938h-16.124c-4.384 0-7.938-3.554-7.938-7.938v-16.124z"></path>
<path fill="#fff" style="fill: var(--color2, #fff)" d="M24.853 25.183c-2.259 2.071-5.123 3.107-8.59 3.107-3.671 0-6.684-1.145-9.037-3.436-2.338-2.275-3.507-5.241-3.507-8.896 0-3.64 1.138-6.59 3.413-8.849 2.291-2.259 5.241-3.389 8.849-3.389 1.851 0 3.522 0.314 5.013 0.941l-0.588 2.754c-1.255-0.581-2.699-0.871-4.33-0.871-2.777 0-5.029 0.839-6.755 2.518-1.71 1.679-2.565 3.985-2.565 6.919 0 2.918 0.879 5.225 2.636 6.919 1.773 1.71 4.087 2.565 6.943 2.565 1.255 0 2.401-0.18 3.436-0.541 1.051-0.345 1.985-0.879 2.801-1.6 0.832-0.706 1.475-1.655 1.93-2.848 0.239-0.606 0.418-1.261 0.535-1.964 0.143-1.351 0.232-2.717-0.003-3.776-0.126-0.569-0.317-0.906-0.517-1.098-0.17-0.164-0.469-0.344-1.104-0.356-1.126-0.022-2.382 0.692-3.662 2.032-1.241 1.298-2.285 2.949-2.926 4.192-0.25 0.484-0.422 0.882-0.422 0.882l-0.066-0.067-0 0.001-5.103-5.135 2.16-2.16 2.389 2.337c0.519-0.736 1.109-1.48 1.76-2.161 1.469-1.537 3.503-3.023 5.93-2.976 1.272 0.025 2.35 0.428 3.162 1.209 0.782 0.753 1.179 1.723 1.381 2.639 0.16 0.722 0.216 1.497 0.216 2.258h0.011v0.4c0 0.915-0.075 1.78-0.224 2.596l-0.004 0.035-0.002-0c-0.435 2.347-1.488 4.287-3.159 5.818z"></path>
</symbol>
<symbol id="icon-piggy-bank" viewBox="0 0 32 32">
<path fill="#1064e5" style="fill: var(--color1, #1064e5); stroke: var(--color1, #1064e5)" stroke="#1064e5" stroke-linejoin="miter" stroke-linecap="butt" stroke-miterlimit="4" stroke-width="0.7619" d="M26.406 16.913c-0.257 0-0.466 0.209-0.466 0.466 0 0.326-0.265 0.591-0.591 0.591s-0.591-0.265-0.591-0.591c0-0.257-0.209-0.466-0.466-0.466s-0.466 0.209-0.466 0.466c0 0.84 0.683 1.523 1.523 1.523s1.523-0.683 1.523-1.523c0-0.257-0.208-0.466-0.466-0.466z"></path>
<path fill="#1064e5" style="fill: var(--color1, #1064e5); stroke: var(--color1, #1064e5)" stroke="#1064e5" stroke-linejoin="miter" stroke-linecap="butt" stroke-miterlimit="4" stroke-width="0.7619" d="M30.778 16.989l-1.311-0.42c-0.168-0.054-0.3-0.188-0.354-0.358-0.276-0.878-0.693-1.703-1.239-2.451-0.249-0.341-0.526-0.666-0.828-0.976 0.193-0.848 0.299-1.808 0.285-2.638-0.020-1.187-0.257-1.883-0.725-2.128-0.252-0.132-1.020-0.534-5.174 1.368-0.098 0.045-0.19 0.101-0.275 0.164-0.28-0.075-0.566-0.145-0.854-0.207-0.035-0.008-0.070-0.014-0.105-0.022 0.337-0.735 0.533-1.534 0.57-2.359 0.012-0.257-0.187-0.475-0.444-0.486-0.256-0.013-0.475 0.187-0.486 0.444-0.061 1.356-0.623 2.631-1.583 3.592-0.574 0.574-1.246 0.991-1.962 1.253-1.242-0.174-2.507-0.174-3.748 0-0.716-0.262-1.388-0.679-1.962-1.253-1.025-1.025-1.589-2.387-1.589-3.836s0.564-2.811 1.589-3.836c1.025-1.025 2.387-1.589 3.836-1.589s2.811 0.564 3.836 1.589c0.412 0.412 0.752 0.882 1.011 1.396 0.116 0.23 0.396 0.322 0.625 0.207s0.322-0.396 0.206-0.625c-0.304-0.604-0.702-1.154-1.185-1.636-1.201-1.201-2.797-1.862-4.495-1.862s-3.294 0.661-4.495 1.862c-1.201 1.201-1.862 2.797-1.862 4.495s0.661 3.294 1.862 4.495c0.346 0.346 0.723 0.644 1.122 0.894 0 0 0-0 0-0-0.29 0.075-0.577 0.16-0.861 0.255-0.244 0.082-0.376 0.345-0.294 0.589s0.345 0.376 0.589 0.294c2.54-0.849 5.337-0.849 7.877 0 0.049 0.016 0.099 0.024 0.148 0.024 0.195 0 0.376-0.123 0.442-0.318 0.082-0.244-0.050-0.508-0.294-0.589-0.284-0.095-0.572-0.18-0.861-0.255 0 0 0 0 0 0 0.399-0.25 0.775-0.547 1.122-0.894 0.306-0.306 0.577-0.641 0.812-0.996 0.128 0.025 0.256 0.051 0.381 0.078 0.167 0.036 0.334 0.075 0.499 0.116-0.005 0.020-0.010 0.040-0.015 0.061-0.227 1.078-0.212 2.031 0.044 2.833 0.23 0.721 0.646 1.305 1.235 1.736 0.694 0.508 1.533 0.727 2.292 0.727 0.572 0 1.099-0.124 1.485-0.344 0.438-0.248 0.805-0.77 1.095-1.555 0.134 0.157 0.261 0.317 0.381 0.481 0.486 0.666 0.857 1.4 1.103 2.181 0.144 0.459 0.503 0.82 0.958 0.966l1.311 0.42c0.344 0.11 0.575 0.427 0.575 0.788v2.174c0 0.361-0.231 0.678-0.575 0.788l-2.112 0.676c-0.338 0.108-0.624 0.34-0.805 0.654-0.83 1.434-2.134 2.62-3.877 3.527-0.201 0.105-0.341 0.292-0.383 0.514l-0.676 3.581c-0.019 0.099-0.105 0.17-0.206 0.17h-2.199c-0.1 0-0.187-0.072-0.206-0.17l-0.375-1.979c-0.074-0.39-0.439-0.648-0.832-0.589-0.947 0.143-1.923 0.216-2.901 0.216-0.727 0-1.445-0.041-2.134-0.121-0.381-0.044-0.736 0.216-0.807 0.592l-0.356 1.881c-0.019 0.099-0.105 0.17-0.206 0.17h-2.199c-0.101 0-0.187-0.072-0.206-0.172l-0.651-3.383c-0.042-0.218-0.179-0.403-0.376-0.508-2.971-1.586-4.542-4.237-4.542-7.664 0-1.732 0.379-3.263 1.126-4.552 0.697-1.202 1.716-2.197 3.027-2.955 0.223-0.129 0.299-0.414 0.17-0.636s-0.414-0.299-0.636-0.17c-2.542 1.471-4.076 3.74-4.498 6.622v-0c-0.045-0.004-0.090-0.008-0.134-0.013 0.008-0.311-0.048-0.625-0.171-0.929-0.27-0.672-0.825-1.156-1.414-1.235-0.464-0.062-0.906 0.135-1.212 0.54-0.444 0.587-0.372 1.052-0.233 1.338 0.235 0.483 0.838 0.825 1.838 1.040-0.027 0.041-0.058 0.082-0.091 0.124-0.591 0.741-1.288 0.905-1.74 0.921-0.265 0.009-0.477 0.221-0.477 0.486v0.002c0 0.261 0.206 0.474 0.467 0.486 0.033 0.002 0.068 0.002 0.105 0.002 0.572 0 1.491-0.211 2.373-1.317 0.139-0.175 0.253-0.359 0.34-0.549 0.088 0.010 0.172 0.018 0.253 0.026 0-0 0-0 0-0.001-0.016 0.252-0.025 0.509-0.025 0.769 0 1.939 0.462 3.668 1.374 5.139 0.841 1.356 2.044 2.467 3.578 3.302l0.633 3.288c0.102 0.538 0.573 0.929 1.121 0.929h2.199c0.548 0 1.019-0.39 1.121-0.929l0.322-1.7c0.668 0.071 1.361 0.107 2.060 0.107 0.96 0 1.919-0.067 2.853-0.199l0.339 1.793c0.102 0.538 0.573 0.928 1.121 0.928h2.199c0.547 0 1.019-0.391 1.121-0.929l0.659-3.487c1.861-0.984 3.263-2.276 4.169-3.842 0.065-0.113 0.166-0.196 0.283-0.233l2.112-0.677c0.731-0.234 1.222-0.907 1.222-1.675v-2.173c0-0.768-0.491-1.441-1.222-1.675zM26.33 11.454c-0.179 1.533-0.66 2.844-1.143 3.118-0.549 0.311-1.817 0.371-2.769-0.325-0.953-0.697-1.27-1.951-0.917-3.625 0-0 0-0 0-0 0.035-0.168 0.155-0.314 0.32-0.389 2.331-1.067 3.676-1.416 4.175-1.416 0.075 0 0.131 0.008 0.169 0.023 0.15 0.16 0.347 1.069 0.166 2.616zM1.308 16.625c-0.048-0.099 0.066-0.274 0.138-0.369 0.114-0.151 0.22-0.182 0.299-0.182 0.017 0 0.032 0.001 0.047 0.003 0.214 0.029 0.514 0.264 0.673 0.659 0.037 0.093 0.086 0.247 0.097 0.439-0.645-0.134-1.146-0.326-1.254-0.55z"></path>
<path fill="#1064e5" style="fill: var(--color1, #1064e5); stroke: var(--color1, #1064e5)" stroke="#1064e5" stroke-linejoin="miter" stroke-linecap="butt" stroke-miterlimit="4" stroke-width="0.7619" d="M14.87 6.142v-1.667c0.575 0.041 0.788 0.304 0.985 0.304 0.246 0 0.361-0.312 0.361-0.468 0-0.402-0.788-0.575-1.346-0.591v-0.222c0-0.099-0.123-0.189-0.246-0.189-0.14 0-0.238 0.090-0.238 0.189v0.238c-0.78 0.082-1.56 0.493-1.56 1.527 0 1.051 0.821 1.346 1.56 1.609v1.929c-0.837-0.066-1.059-0.64-1.33-0.64-0.205 0-0.378 0.271-0.378 0.468 0 0.402 0.69 0.952 1.708 0.969v0.255c0 0.098 0.099 0.189 0.238 0.189 0.123 0 0.246-0.090 0.246-0.189v-0.279c0.887-0.123 1.494-0.681 1.494-1.691 0-1.116-0.78-1.478-1.494-1.74zM14.435 5.986c-0.435-0.164-0.788-0.337-0.788-0.804 0-0.427 0.328-0.632 0.788-0.69v1.494zM14.821 8.786v-1.732c0.402 0.172 0.722 0.402 0.722 0.919 0 0.468-0.279 0.731-0.722 0.813z"></path>
</symbol>
<symbol id="icon-positive-vote" viewBox="0 0 32 32">
<path fill="#1064e5" style="fill: var(--color1, #1064e5); stroke: var(--color1, #1064e5)" stroke="#1064e5" stroke-linejoin="miter" stroke-linecap="butt" stroke-miterlimit="4" stroke-width="0.7619" d="M31.433 13.709c-0.332-0.501-0.835-0.846-1.419-0.977 0.377-0.721 0.362-1.622-0.119-2.347-0.342-0.516-0.857-0.85-1.419-0.976 0.1-0.191 0.174-0.397 0.218-0.614 0.122-0.604 0.003-1.22-0.338-1.734-0.332-0.501-0.835-0.846-1.419-0.977 0.377-0.721 0.362-1.622-0.119-2.347-0.702-1.061-2.137-1.353-3.199-0.65l-2.297 1.522c-1.225-0.621-2.527-1.062-3.879-1.313-0.427-0.649-0.924-1.252-1.48-1.791l-0.95-0.921c-0.696-0.675-1.788-0.776-2.596-0.241-0.956 0.633-1.219 1.926-0.586 2.882 0.025 0.038 0.049 0.076 0.073 0.114-3.115 0.63-5.955 2.284-8.056 4.706-2.281 2.629-3.537 5.996-3.537 9.481 0 0.668 0.046 1.337 0.136 1.989 0.696 5.064 4.069 9.428 8.803 11.389 1.755 0.728 3.618 1.097 5.535 1.097 3.036 0 5.943-0.93 8.406-2.689 2.409-1.721 4.212-4.096 5.213-6.869 0.093-0.258-0.041-0.544-0.299-0.637s-0.544 0.041-0.637 0.299c-0.932 2.582-2.611 4.794-4.856 6.397-2.293 1.638-4.999 2.504-7.827 2.504-1.462 0-2.889-0.231-4.256-0.686l4.048-2.681c0-0 0-0 0.001-0s0-0 0.001-0.001l3.365-2.228c0.302-0.2 0.508-0.506 0.581-0.861s0.002-0.718-0.198-1.020l-0.044-0.067 0.654-0.433c0.466-0.309 1.027-0.43 1.579-0.341 0.8 0.128 1.612-0.047 2.286-0.494l5.421-3.59c-0.037 0.47-0.098 0.938-0.183 1.398-0.050 0.27 0.128 0.53 0.398 0.58 0.030 0.006 0.061 0.009 0.091 0.009 0.235 0 0.444-0.167 0.489-0.407 0.138-0.742 0.217-1.502 0.238-2.263l1.528-1.012c0.514-0.34 0.865-0.861 0.987-1.465s0.003-1.22-0.337-1.734zM20.357 5.248l-1.52 1.007-0.299-0.806c-0.125-0.336-0.268-0.666-0.427-0.989 0.771 0.196 1.522 0.459 2.247 0.789zM4.601 8.697c2.020-2.328 4.771-3.894 7.781-4.436 0.483 1.17 0.599 2.477 0.31 3.723l-1.213 5.241c-0.191-0.204-0.438-0.344-0.717-0.401-0.355-0.072-0.717-0.002-1.020 0.198l-3.436 2.275c-0 0-0 0-0 0s-0 0-0 0l-4.956 3.282c-0.027-0.35-0.041-0.702-0.041-1.054 0-3.245 1.17-6.381 3.293-8.829zM17.55 24.35c-0.019 0.095-0.075 0.176-0.155 0.23h0l-2.955 1.957-5.485-8.179c-0.153-0.228-0.462-0.289-0.69-0.136s-0.289 0.462-0.136 0.69l5.481 8.175-4.219 2.794c-4.192-1.833-7.192-5.706-7.913-10.211l4.962-3.275 0.571 0.852c0.096 0.143 0.253 0.221 0.414 0.221 0.095 0 0.192-0.027 0.277-0.084 0.228-0.153 0.289-0.462 0.136-0.69l-0.567-0.846 3.020-1.993c0.080-0.053 0.177-0.072 0.271-0.053s0.177 0.074 0.23 0.155l6.705 10.124c0.053 0.080 0.072 0.177 0.053 0.272zM30.795 15.244c-0.070 0.344-0.269 0.64-0.562 0.833l-1.746 1.157c-0 0-0.001 0.001-0.002 0.001l-6.233 4.128c-0.466 0.309-1.027 0.43-1.579 0.341-0.799-0.128-1.611 0.047-2.286 0.494l-0.654 0.433-5.491-8.292 1.419-6.132c0.366-1.58 0.173-3.243-0.523-4.693-0.006-0.015-0.013-0.030-0.021-0.044-0.134-0.274-0.286-0.54-0.455-0.796-0.33-0.499-0.193-1.173 0.306-1.503 0.421-0.279 0.991-0.226 1.354 0.125l0.95 0.921c1.028 0.997 1.835 2.233 2.333 3.575l0.518 1.394c0.001 0.003 0.002 0.005 0.003 0.007s0.003 0.007 0.004 0.010c0.004 0.009 0.007 0.016 0.011 0.023 0.010 0.021 0.021 0.042 0.034 0.062 0.152 0.229 0.46 0.292 0.69 0.14l5.307-3.514c0.604-0.4 1.42-0.234 1.819 0.37s0.234 1.42-0.37 1.819l-0.461 0.305c0 0-0 0-0 0l-1.028 0.681c-0.001 0.001-0.002 0.002-0.004 0.003-0.006 0.004-0.011 0.008-0.016 0.012-0.212 0.156-0.267 0.453-0.12 0.675 0.152 0.229 0.46 0.292 0.69 0.14l1.028-0.681c0.292-0.193 0.642-0.261 0.986-0.191s0.64 0.269 0.833 0.562c0.194 0.292 0.262 0.643 0.192 0.986s-0.269 0.64-0.562 0.833l-1.489 0.986c-0.229 0.152-0.292 0.46-0.14 0.689 0.096 0.145 0.254 0.223 0.415 0.223 0.094 0 0.19-0.027 0.274-0.083l1.028-0.681c0.604-0.4 1.42-0.234 1.819 0.37s0.234 1.42-0.37 1.82l-0.744 0.492c-0.004 0.002-0.008 0.005-0.012 0.008l-0.733 0.486c-0.229 0.152-0.292 0.46-0.14 0.69 0.096 0.145 0.254 0.223 0.415 0.223 0.094 0 0.19-0.027 0.274-0.083l0.23-0.153c0 0 0-0 0-0l0.797-0.528c0.292-0.194 0.642-0.262 0.986-0.192s0.64 0.269 0.833 0.562c0.193 0.292 0.262 0.643 0.192 0.986z"></path>
</symbol>
<symbol id="icon-speedometer" viewBox="0 0 32 32">
<path fill="#1064e5" style="fill: var(--color1, #1064e5); stroke: var(--color1, #1064e5)" stroke="#1064e5" stroke-linejoin="miter" stroke-linecap="butt" stroke-miterlimit="4" stroke-width="0.381" d="M14 18.757c0 1.103 0.897 2 2 2s2-0.897 2-2c0-0.276-0.224-0.5-0.5-0.5s-0.5 0.224-0.5 0.5c0 0.552-0.449 1-1 1s-1-0.449-1-1c0-0.103 0.016-0.203 0.045-0.296 0.017-0.026 0.033-0.054 0.045-0.084s0.021-0.059 0.027-0.089c0.168-0.316 0.501-0.532 0.883-0.532 0.276 0 0.5-0.224 0.5-0.5s-0.224-0.5-0.5-0.5c-0.651 0-1.231 0.313-1.596 0.796l-7.616-3.14c-0.255-0.105-0.547 0.016-0.652 0.272s0.016 0.547 0.272 0.652l7.613 3.139c-0.013 0.092-0.020 0.185-0.020 0.28z"></path>
<path fill="#1064e5" style="fill: var(--color1, #1064e5); stroke: var(--color1, #1064e5)" stroke="#1064e5" stroke-linejoin="miter" stroke-linecap="butt" stroke-miterlimit="4" stroke-width="0.381" d="M27.314 7.443c-3.022-3.022-7.040-4.686-11.314-4.686s-8.292 1.664-11.314 4.686c-3.022 3.022-4.686 7.040-4.686 11.314 0 3.13 0.907 6.164 2.623 8.775 0.096 0.146 0.255 0.225 0.418 0.225 0.094 0 0.189-0.027 0.274-0.082 0.231-0.152 0.295-0.462 0.143-0.692-0.427-0.649-0.8-1.327-1.118-2.027l1.379-0.571c0.255-0.106 0.376-0.398 0.27-0.653s-0.398-0.376-0.653-0.27l-1.38 0.571c-0.573-1.522-0.894-3.132-0.949-4.776h1.492c0.276 0 0.5-0.224 0.5-0.5s-0.224-0.5-0.5-0.5h-1.491c0.054-1.656 0.375-3.265 0.943-4.778l1.385 0.574c0.063 0.026 0.127 0.038 0.191 0.038 0.196 0 0.382-0.116 0.462-0.309 0.106-0.255-0.015-0.547-0.27-0.653l-1.385-0.574c0.669-1.472 1.579-2.837 2.712-4.046l1.054 1.054c0.098 0.098 0.225 0.146 0.353 0.146s0.256-0.049 0.353-0.146c0.195-0.195 0.195-0.512 0-0.707l-1.054-1.054c1.209-1.133 2.574-2.044 4.046-2.712l0.574 1.385c0.080 0.192 0.266 0.309 0.462 0.309 0.064 0 0.129-0.012 0.191-0.038 0.255-0.106 0.376-0.398 0.27-0.653l-0.574-1.385c1.513-0.568 3.123-0.889 4.778-0.943v1.491c0 0.276 0.224 0.5 0.5 0.5s0.5-0.224 0.5-0.5v-1.491c1.656 0.054 3.265 0.375 4.779 0.943l-0.574 1.385c-0.106 0.255 0.015 0.547 0.27 0.653 0.063 0.026 0.127 0.038 0.191 0.038 0.196 0 0.382-0.116 0.462-0.309l0.574-1.385c1.472 0.669 2.837 1.579 4.046 2.712l-1.054 1.054c-0.195 0.195-0.195 0.512 0 0.707 0.098 0.098 0.225 0.146 0.353 0.146s0.256-0.049 0.353-0.146l1.054-1.054c1.133 1.209 2.044 2.574 2.712 4.046l-1.385 0.574c-0.255 0.106-0.376 0.398-0.27 0.653 0.080 0.192 0.266 0.309 0.462 0.309 0.064 0 0.129-0.012 0.191-0.038l1.385-0.574c0.568 1.513 0.889 3.123 0.943 4.779h-1.491c-0.276 0-0.5 0.224-0.5 0.5s0.224 0.5 0.5 0.5h1.492c-0.054 1.644-0.376 3.255-0.949 4.776l-1.38-0.571c-0.255-0.105-0.547 0.015-0.653 0.27s0.015 0.547 0.27 0.653l1.379 0.571c-0.318 0.7-0.691 1.377-1.118 2.027-0.152 0.231-0.087 0.54 0.143 0.692s0.54 0.087 0.692-0.143c1.716-2.611 2.623-5.645 2.623-8.775-0-4.274-1.664-8.292-4.686-11.314z"></path>
<path fill="#1064e5" style="fill: var(--color1, #1064e5); stroke: var(--color1, #1064e5)" stroke="#1064e5" stroke-linejoin="miter" stroke-linecap="butt" stroke-miterlimit="4" stroke-width="0.381" d="M20.489 24.246h-8.995c-0.827 0-1.499 0.673-1.499 1.499v1.999c0 0.827 0.673 1.499 1.499 1.499h8.995c0.827 0 1.499-0.673 1.499-1.499v-1.999c0-0.827-0.673-1.499-1.499-1.499zM20.989 27.744c0 0.276-0.224 0.5-0.5 0.5h-8.995c-0.276 0-0.5-0.224-0.5-0.5v-1.999c0-0.276 0.224-0.5 0.5-0.5h8.995c0.276 0 0.5 0.224 0.5 0.5v1.999z"></path>
<path fill="#1064e5" style="fill: var(--color1, #1064e5); stroke: var(--color1, #1064e5)" stroke="#1064e5" stroke-linejoin="miter" stroke-linecap="butt" stroke-miterlimit="4" stroke-width="0.381" d="M16.491 26.245h-0.999c-0.276 0-0.5 0.224-0.5 0.5s0.224 0.5 0.5 0.5h0.999c0.276 0 0.5-0.224 0.5-0.5s-0.224-0.5-0.5-0.5z"></path>
<path fill="#1064e5" style="fill: var(--color1, #1064e5); stroke: var(--color1, #1064e5)" stroke="#1064e5" stroke-linejoin="miter" stroke-linecap="butt" stroke-miterlimit="4" stroke-width="0.381" d="M13.993 26.245h-0.999c-0.276 0-0.5 0.224-0.5 0.5s0.224 0.5 0.5 0.5h0.999c0.276 0 0.5-0.224 0.5-0.5s-0.224-0.5-0.5-0.5z"></path>
<path fill="#1064e5" style="fill: var(--color1, #1064e5); stroke: var(--color1, #1064e5)" stroke="#1064e5" stroke-linejoin="miter" stroke-linecap="butt" stroke-miterlimit="4" stroke-width="0.381" d="M18.99 26.245h-0.999c-0.276 0-0.5 0.224-0.5 0.5s0.224 0.5 0.5 0.5h0.999c0.276 0 0.5-0.224 0.5-0.5s-0.224-0.5-0.5-0.5z"></path>
</symbol>
<symbol id="icon-arrow-up" viewBox="0 0 32 32">
<path d="M27.414 12.586l-10-10c-0.781-0.781-2.047-0.781-2.828 0l-10 10c-0.781 0.781-0.781 2.047 0 2.828s2.047 0.781 2.828 0l6.586-6.586v19.172c0 1.105 0.895 2 2 2s2-0.895 2-2v-19.172l6.586 6.586c0.39 0.39 0.902 0.586 1.414 0.586s1.024-0.195 1.414-0.586c0.781-0.781 0.781-2.047 0-2.828z"></path>
</symbol>
<symbol id="icon-logo-new" viewBox="0 0 105 32">
<path d="M57.614 5.251c0.612 0 1.114 0.188 1.506 0.565 0.392 0.361 0.588 0.832 0.588 1.412s-0.196 1.059-0.588 1.436c-0.392 0.377-0.894 0.565-1.506 0.565-0.596 0-1.098-0.188-1.506-0.565-0.392-0.377-0.588-0.855-0.588-1.436 0-0.565 0.196-1.036 0.588-1.412 0.408-0.377 0.91-0.565 1.506-0.565zM55.919 24.173v-12.944h3.365v12.944h-3.365z"></path>
<path  d="M70.784 11.23h3.365v12.78c0 1.914-0.581 3.444-1.742 4.589-1.161 1.161-2.714 1.742-4.66 1.742-1.679 0-3.138-0.424-4.377-1.271-1.224-0.847-1.953-2.079-2.189-3.695h3.483c0.345 1.318 1.341 1.977 2.989 1.977 2.087 0 3.13-1.083 3.13-3.248v-1.859c-1.004 1.349-2.361 2.024-4.072 2.024-1.695 0-3.107-0.628-4.236-1.883-1.114-1.255-1.671-2.848-1.671-4.778s0.565-3.522 1.694-4.778 2.534-1.883 4.213-1.883c1.726 0 3.083 0.69 4.072 2.071v-1.789zM67.465 21.068c0.957 0 1.749-0.322 2.377-0.965s0.942-1.475 0.942-2.495c0-1.004-0.322-1.828-0.965-2.471-0.628-0.659-1.412-0.988-2.353-0.988s-1.726 0.329-2.353 0.988c-0.612 0.643-0.918 1.467-0.918 2.471s0.306 1.836 0.918 2.495c0.628 0.643 1.412 0.965 2.353 0.965z"></path>
<path  d="M47.424 17.621c-1.208-0.251-2.181-0.502-2.918-0.753s-1.412-0.573-2.024-0.965c-0.612-0.377-1.043-0.847-1.294-1.412-0.267-0.565-0.4-1.247-0.4-2.048 0-0.91 0.196-1.718 0.588-2.424 0.377-0.69 0.886-1.224 1.53-1.6 0.628-0.377 1.294-0.659 2-0.847 0.69-0.188 1.404-0.282 2.142-0.282 2.244 0 3.954 0.526 5.131 1.577 1.161 1.067 1.844 2.401 2.048 4.001h-3.389c-0.235-0.847-0.635-1.467-1.2-1.859-0.581-0.392-1.436-0.588-2.565-0.588-0.941 0-1.655 0.165-2.142 0.494-0.502 0.329-0.753 0.792-0.753 1.389 0 0.377 0.141 0.675 0.424 0.894 0.267 0.235 0.596 0.408 0.988 0.518s1.090 0.275 2.095 0.494c0.078 0.016 0.141 0.024 0.188 0.024 0.031 0.016 0.086 0.031 0.165 0.047 0.063 0.016 0.126 0.031 0.188 0.047 0.847 0.173 1.561 0.361 2.142 0.565s1.153 0.486 1.718 0.847c0.565 0.361 0.996 0.824 1.294 1.389 0.282 0.565 0.424 1.239 0.424 2.024 0 1.632-0.612 2.903-1.836 3.813s-2.683 1.365-4.378 1.365c-2.071 0-3.64-0.479-4.707-1.436-1.083-0.941-1.726-2.165-1.93-3.671h3.413c0.408 1.318 1.475 1.977 3.201 1.977 0.957 0 1.671-0.18 2.142-0.541 0.471-0.345 0.706-0.8 0.706-1.365 0-0.455-0.196-0.784-0.588-0.988-0.408-0.204-1.208-0.431-2.401-0.683z"></path>
<path  d="M89.058 12.265c-0.832-0.91-1.977-1.365-3.436-1.365-1.66 0-2.973 0.643-3.938 1.93v-1.606h-0.086v-0.041h-3.365v0.041h-2.525v2.988h2.525v9.915h3.365v-6.802c0-2.15 0.973-3.224 2.918-3.224 0.863 0 1.483 0.22 1.859 0.659s0.565 1.098 0.565 1.977v7.39h3.365v-8.12c0-1.585-0.416-2.832-1.247-3.742z"></path>
<path  d="M104.174 11.229h-3.365v6.802c0 1.051-0.251 1.851-0.753 2.401-0.486 0.549-1.192 0.824-2.118 0.824-0.847 0-1.459-0.22-1.836-0.659-0.361-0.439-0.541-1.098-0.541-1.977v-7.39h-3.365v8.12c0 1.569 0.408 2.816 1.224 3.742 0.832 0.91 1.961 1.365 3.389 1.365 1.679 0 3.012-0.69 4.001-2.071v1.789h0v0.326c0 0.975-0.226 1.681-0.672 2.144-0.445 0.462-1.123 0.705-2.059 0.705-0.74 0-1.318-0.148-1.747-0.432-0.426-0.282-0.717-0.706-0.868-1.284l-0.026-0.099h-3.454l0.022 0.152c0.221 1.516 0.908 2.682 2.065 3.483l0.001 0c1.163 0.795 2.529 1.19 4.094 1.19 1.814 0 3.277-0.542 4.372-1.638 1.095-1.081 1.638-2.522 1.638-4.308v-13.184z"></path>
<path fill="#1064e5" style="fill: var(--color2, #1064e5)" d="M0 7.938c0-4.384 3.554-7.938 7.938-7.938h16.124c4.384 0 7.938 3.554 7.938 7.938v16.124c0 4.384-3.554 7.938-7.938 7.938h-16.124c-4.384 0-7.938-3.554-7.938-7.938v-16.124z"></path>
<path fill="#fff" style="fill: var(--color3, #fff)" d="M24.853 25.183c-2.259 2.071-5.123 3.107-8.59 3.107-3.671 0-6.684-1.145-9.037-3.436-2.338-2.275-3.507-5.241-3.507-8.896 0-3.64 1.138-6.59 3.413-8.849 2.291-2.259 5.241-3.389 8.849-3.389 1.851 0 3.522 0.314 5.013 0.941l-0.588 2.754c-1.255-0.581-2.699-0.871-4.33-0.871-2.777 0-5.029 0.839-6.755 2.518-1.71 1.679-2.565 3.985-2.565 6.919 0 2.918 0.879 5.225 2.636 6.919 1.773 1.71 4.087 2.565 6.943 2.565 1.255 0 2.401-0.18 3.436-0.541 1.051-0.345 1.985-0.879 2.801-1.6 0.832-0.706 1.475-1.655 1.93-2.848 0.239-0.606 0.418-1.261 0.535-1.964 0.143-1.351 0.232-2.717-0.003-3.776-0.126-0.569-0.317-0.906-0.517-1.098-0.17-0.164-0.469-0.344-1.104-0.356-1.126-0.022-2.382 0.692-3.662 2.032-1.241 1.298-2.285 2.949-2.926 4.192-0.25 0.484-0.422 0.882-0.422 0.882l-0.066-0.067-0 0.001-5.103-5.135 2.16-2.16 2.389 2.337c0.519-0.736 1.109-1.48 1.76-2.161 1.469-1.537 3.503-3.023 5.93-2.976 1.272 0.025 2.35 0.428 3.162 1.209 0.782 0.753 1.179 1.723 1.381 2.639 0.16 0.722 0.216 1.497 0.216 2.258h0.011v0.4c0 0.915-0.075 1.78-0.224 2.596l-0.004 0.035-0.002-0c-0.435 2.347-1.488 4.287-3.159 5.818z"></path>
</symbol>
<symbol id="icon-burger" viewBox="0 0 41 32">
<path fill="#1064e5" style="fill: var(--color1, #1064e5)" d="M0 2.286c0-1.262 1.023-2.286 2.286-2.286h36.571c1.262 0 2.286 1.023 2.286 2.286s-1.023 2.286-2.286 2.286h-36.571c-1.262 0-2.286-1.023-2.286-2.286z"></path>
<path fill="#1064e5" style="fill: var(--color1, #1064e5)" d="M0 16c0-1.262 1.023-2.286 2.286-2.286h36.571c1.262 0 2.286 1.023 2.286 2.286s-1.023 2.286-2.286 2.286h-36.571c-1.262 0-2.286-1.023-2.286-2.286z"></path>
<path fill="#1064e5" style="fill: var(--color1, #1064e5)" d="M0 29.714c0-1.262 1.023-2.286 2.286-2.286h36.571c1.262 0 2.286 1.023 2.286 2.286s-1.023 2.286-2.286 2.286h-36.571c-1.262 0-2.286-1.023-2.286-2.286z"></path>
</symbol>
<symbol id="icon-arrou-up" viewBox="0 0 27 32">
<path fill="none" stroke="#fff" style="stroke: var(--color1, #fff)" stroke-linejoin="miter" stroke-linecap="butt" stroke-miterlimit="4" stroke-width="0.8889" d="M26.223 13.333v5.196c0 7.118-5.771 12.889-12.889 12.889s-12.889-5.771-12.889-12.889v-5.196c0-7.118 5.771-12.889 12.889-12.889s12.889 5.771 12.889 12.889z"></path>
<path fill="none" stroke="#fff" style="stroke: var(--color1, #fff)" stroke-linejoin="miter" stroke-linecap="butt" stroke-miterlimit="4" stroke-width="0.8889" d="M13.333 25.491v-17.525"></path>
<path fill="none" stroke="#fff" style="stroke: var(--color1, #fff)" stroke-linejoin="miter" stroke-linecap="butt" stroke-miterlimit="4" stroke-width="0.8889" d="M13.333 7.966l-3.333 3.452"></path>
<path fill="none" stroke="#fff" style="stroke: var(--color1, #fff)" stroke-linejoin="miter" stroke-linecap="butt" stroke-miterlimit="4" stroke-width="0.8889" d="M13.333 7.966l3.333 3.452"></path>
</symbol>
</defs>
</svg>
